<svg width="31" height="30" viewBox="0 0 31 30" fill="none" xmlns="http://www.w3.org/2000/svg">
<path d="M15.5 29.9263C24.0604 29.9263 31 23.3117 31 15.1521C31 6.99255 24.0604 0.37793 15.5 0.37793C6.93959 0.37793 0 6.99255 0 15.1521C0 23.3117 6.93959 29.9263 15.5 29.9263Z" fill="white" fill-opacity="0.5"/>
<path d="M23.2498 10.7196C23.2498 11.1114 23.0865 11.4872 22.7958 11.7643C22.5051 12.0414 22.1109 12.197 21.6998 12.197H18.5998C18.1887 12.197 17.7945 12.3527 17.5038 12.6297C17.2131 12.9068 17.0498 13.2826 17.0498 13.6744V16.6293H20.1498C20.5609 16.6293 20.9551 16.7849 21.2458 17.062C21.5365 17.3391 21.6998 17.7149 21.6998 18.1067C21.6998 18.4985 21.5365 18.8743 21.2458 19.1514C20.9551 19.4285 20.5609 19.5841 20.1498 19.5841H17.0498V29.926C16.5383 29.926 16.0268 29.9999 15.4998 29.9999C14.9728 29.9999 14.4613 29.9999 13.9498 29.926V19.5841H10.8498C10.4387 19.5841 10.0445 19.4285 9.75379 19.1514C9.46311 18.8743 9.2998 18.4985 9.2998 18.1067C9.2998 17.7149 9.46311 17.3391 9.75379 17.062C10.0445 16.7849 10.4387 16.6293 10.8498 16.6293H13.9498V13.6744C13.9498 12.4989 14.4397 11.3716 15.3118 10.5404C16.1838 9.70916 17.3665 9.24219 18.5998 9.24219H21.6998C22.1109 9.24219 22.5051 9.39784 22.7958 9.67491C23.0865 9.95198 23.2498 10.3278 23.2498 10.7196Z" fill="black"/>
</svg>
