<svg width="34" height="34" viewBox="0 0 34 34" fill="none" xmlns="http://www.w3.org/2000/svg">
<path d="M2 15.3333C2 9.04793 2 5.90525 3.95262 3.95262C5.90525 2 9.04793 2 15.3333 2H18.6667C24.952 2 28.0948 2 30.0473 3.95262C32 5.90525 32 9.04793 32 15.3333V18.6667C32 24.952 32 28.0948 30.0473 30.0473C28.0948 32 24.952 32 18.6667 32H15.3333C9.04793 32 5.90525 32 3.95262 30.0473C2 28.0948 2 24.952 2 18.6667V15.3333Z" stroke="white" stroke-opacity="0.5" stroke-width="3"/>
<path d="M25.8047 10.6958C27.1854 10.6958 28.3047 9.57651 28.3047 8.1958C28.3047 6.81509 27.1854 5.6958 25.8047 5.6958C24.424 5.6958 23.3047 6.81509 23.3047 8.1958C23.3047 9.57651 24.424 10.6958 25.8047 10.6958Z" fill="white" fill-opacity="0.5"/>
<path d="M17.0002 22.6668C20.1298 22.6668 22.6668 20.1298 22.6668 17.0002C22.6668 13.8705 20.1298 11.3335 17.0002 11.3335C13.8705 11.3335 11.3335 13.8705 11.3335 17.0002C11.3335 20.1298 13.8705 22.6668 17.0002 22.6668Z" stroke="white" stroke-opacity="0.5" stroke-width="3"/>
</svg>
