<svg width="30" height="26" viewBox="0 0 30 26" fill="none" xmlns="http://www.w3.org/2000/svg">
<path d="M6.81916 8.44859V25.9978H0.37506V8.44859H6.81916ZM7.22886 3.03066C7.23005 3.06207 7.23125 3.0989 7.23125 3.13681C7.23125 3.94809 6.85141 4.67814 6.24462 5.18938L6.24224 5.19047C5.59126 5.72988 4.7205 6.06024 3.76374 6.06024C3.70521 6.06024 3.64548 6.05916 3.58696 6.05699H3.59532H3.5559C3.50693 6.05916 3.44959 6.06024 3.39226 6.06024C2.4558 6.06024 1.60535 5.72879 0.973483 5.18938L0.974677 5.19047C0.372671 4.66189 0 3.92318 0 3.1054C0 3.0794 -1.39053e-10 3.05341 0.00119446 3.02633V3.03066C-1.39053e-10 3.00792 0 2.98192 0 2.95592C0 2.13056 0.387004 1.38752 1.00454 0.866522L1.00693 0.865439C1.65671 0.329278 2.52508 0 3.47707 0C3.53201 0 3.58576 0.00108315 3.64071 0.00324946H3.63354C3.6849 0.00108315 3.74343 0 3.80435 0C4.742 0 5.59603 0.328195 6.23387 0.864356L6.23149 0.86219C6.84663 1.40052 7.22886 2.15439 7.22886 2.9895V3.03499V3.03283V3.03066ZM29.9976 15.9418V25.9978H23.5738V16.6123C23.5798 16.5267 23.5822 16.4271 23.5822 16.3274C23.5822 15.3569 23.2848 14.4503 22.7676 13.677L22.7819 13.6997C22.2719 13.0542 21.4477 12.6393 20.5172 12.6393C20.4455 12.6393 20.3739 12.6415 20.3022 12.6469H20.3118C20.2795 12.6458 20.2425 12.6447 20.2054 12.6447C19.4649 12.6447 18.784 12.8754 18.2453 13.2621L18.2525 13.2578C17.7114 13.6553 17.2874 14.1633 17.0198 14.7471L17.0103 14.772C16.8717 15.1566 16.7929 15.5985 16.7929 16.0577C16.7929 16.1097 16.7941 16.1617 16.7965 16.2137V16.2061V26H10.3727C10.3989 21.2897 10.4121 17.4705 10.4121 14.5424C10.4121 11.6143 10.4057 9.86716 10.393 9.30103L10.3739 8.45076H16.7977V11.0005H16.7582C17.0139 10.6268 17.2778 10.3029 17.5681 9.99967L17.5585 10.0094C17.8942 9.67472 18.2549 9.37252 18.6431 9.10173L18.6622 9.08873C19.1448 8.75187 19.7109 8.48758 20.3249 8.3262L20.3607 8.31861C21.0033 8.14423 21.7427 8.04349 22.5072 8.04349H22.6015H22.5968C22.6816 8.04024 22.7807 8.03808 22.8798 8.03808C24.8877 8.03808 26.6961 8.81145 27.9634 10.0484L27.967 10.0527C29.3223 11.393 30 13.3556 30 15.9408L29.9976 15.9418Z" fill="white" fill-opacity="0.5"/>
</svg>
