<svg width="30" height="27" viewBox="0 0 30 27" fill="none" xmlns="http://www.w3.org/2000/svg">
<path d="M30 3.19279C28.8756 3.74524 27.6847 4.10747 26.466 4.26772C27.7452 3.42268 28.7071 2.08259 29.172 0.497857C27.96 1.29153 26.6381 1.85056 25.2615 2.1516C24.6818 1.46851 23.9845 0.925447 23.2121 0.555533C22.4397 0.185618 21.6085 -0.00338739 20.769 4.59494e-05C17.37 4.59494e-05 14.6145 3.05441 14.6145 6.81753C14.6145 7.35078 14.6685 7.87221 14.7735 8.37002C12.3354 8.23957 9.94817 7.53878 7.76425 6.31236C5.58033 5.08594 3.64764 3.36083 2.0895 1.24711C1.54324 2.2839 1.25612 3.46748 1.2585 4.67272C1.2585 7.04028 2.3445 9.12771 3.9945 10.3478C3.01873 10.3123 2.06403 10.0193 1.2075 9.49221V9.57658C1.2075 12.8807 3.33 15.6364 6.1425 16.2641C5.61392 16.4219 5.06937 16.5019 4.5225 16.5021C4.125 16.5021 3.7395 16.4599 3.363 16.3755C3.76513 17.7389 4.53466 18.9275 5.56473 19.7764C6.59479 20.6252 7.83427 21.0922 9.111 21.1123C6.9211 23.01 4.23273 24.0351 1.4685 24.0266C0.9705 24.0266 0.4815 23.9929 0 23.9321C2.82188 25.9414 6.09389 27.0055 9.4335 27C20.754 27 26.943 16.6101 26.943 7.60053L26.922 6.71797C28.1293 5.76229 29.1722 4.56784 30 3.19279Z" fill="white" fill-opacity="0.5"/>
</svg>
