<svg width="22" height="22" viewBox="0 0 22 22" fill="none" xmlns="http://www.w3.org/2000/svg">
<g clip-path="url(#clip0_76_2189)">
<path d="M1.20761 4H20.7884C21.454 4 21.996 4.49583 21.996 5.10469V16.8917C21.996 17.5005 21.454 17.9964 20.7884 17.9964H1.20761C0.542029 18 0 17.5042 0 16.8953V5.10469C0 4.49583 0.542029 4 1.20761 4Z" fill="#B22234"/>
<path d="M0.00797101 4.9953H21.996C22 5.03176 22.004 5.06822 22.004 5.10832V6.1802H0V5.10468C0 5.06822 0.00398551 5.03176 0.00797101 4.9953ZM22 7.16093V8.34218H0V7.16093H22ZM22 9.32655V10.5078H0V9.32655H22ZM22 11.4922V12.6734H0V11.4922H22ZM22 13.6578V14.8391H0V13.6578H22ZM22 15.8234V16.8917C22 16.9281 21.996 16.9682 21.992 17.0047H0.00797101C0.00398551 16.9719 0 16.9318 0 16.8953V15.8271H22V15.8234Z" fill="white"/>
<path d="M8.28986 4V11.5396H0V5.10469C0 4.49583 0.542029 4 1.20761 4H8.28986Z" fill="#3C3B6E"/>
<path d="M0.490401 5.04272L0.765401 5.82658L0.0400391 5.34168H0.940764L0.211416 5.82658L0.490401 5.04272Z" fill="white"/>
<path d="M0.490401 6.55939L0.765401 7.34324L0.0400391 6.85835H0.940764L0.211416 7.34324L0.490401 6.55939Z" fill="white"/>
<path d="M0.490401 8.07605L0.765401 8.8599L0.0400391 8.37501H0.940764L0.211416 8.8599L0.490401 8.07605Z" fill="white"/>
<path d="M0.490401 9.59271L0.765401 10.3766L0.0400391 9.89167H0.940764L0.211416 10.3766L0.490401 9.59271Z" fill="white"/>
<path d="M1.46257 4.28436L1.74155 5.06822L1.01221 4.58332H1.91692L1.18358 5.06822L1.46257 4.28436Z" fill="white"/>
<path d="M1.46257 5.80103L1.74155 6.58488L1.01221 6.09998H1.91692L1.18358 6.58488L1.46257 5.80103Z" fill="white"/>
<path d="M1.46257 7.31769L1.74155 8.10154L1.01221 7.61665H1.91692L1.18358 8.10154L1.46257 7.31769Z" fill="white"/>
<path d="M1.46257 8.83435L1.74155 9.6182L1.01221 9.13331H1.91692L1.18358 9.6182L1.46257 8.83435Z" fill="white"/>
<path d="M1.46257 10.351L1.74155 11.1349L1.01221 10.65H1.91692L1.18358 11.1349L1.46257 10.351Z" fill="white"/>
<path d="M2.43913 5.04272L2.71812 5.82658L1.98877 5.34168H2.88949L2.16015 5.82658L2.43913 5.04272Z" fill="white"/>
<path d="M2.43913 6.55939L2.71812 7.34324L1.98877 6.85835H2.88949L2.16015 7.34324L2.43913 6.55939Z" fill="white"/>
<path d="M2.43913 8.07605L2.71812 8.8599L1.98877 8.37501H2.88949L2.16015 8.8599L2.43913 8.07605Z" fill="white"/>
<path d="M2.43913 9.59271L2.71812 10.3766L1.98877 9.89167H2.88949L2.16015 10.3766L2.43913 9.59271Z" fill="white"/>
<path d="M3.41569 4.28436L3.69069 5.06822L2.96533 4.58332H3.86606L3.13671 5.06822L3.41569 4.28436Z" fill="white"/>
<path d="M3.41569 5.80103L3.69069 6.58488L2.96533 6.09998H3.86606L3.13671 6.58488L3.41569 5.80103Z" fill="white"/>
<path d="M3.41569 7.31769L3.69069 8.10154L2.96533 7.61665H3.86606L3.13671 8.10154L3.41569 7.31769Z" fill="white"/>
<path d="M3.41569 8.83435L3.69069 9.6182L2.96533 9.13331H3.86606L3.13671 9.6182L3.41569 8.83435Z" fill="white"/>
<path d="M3.41569 10.351L3.69069 11.1349L2.96533 10.65H3.86606L3.13671 11.1349L3.41569 10.351Z" fill="white"/>
<path d="M4.38786 5.04272L4.66685 5.82658L3.9375 5.34168H4.83822L4.10888 5.82658L4.38786 5.04272Z" fill="white"/>
<path d="M4.38786 6.55939L4.66685 7.34324L3.9375 6.85835H4.83822L4.10888 7.34324L4.38786 6.55939Z" fill="white"/>
<path d="M4.38786 8.07605L4.66685 8.8599L3.9375 8.37501H4.83822L4.10888 8.8599L4.38786 8.07605Z" fill="white"/>
<path d="M4.38786 9.59271L4.66685 10.3766L3.9375 9.89167H4.83822L4.10888 10.3766L4.38786 9.59271Z" fill="white"/>
<path d="M5.36442 4.28436L5.64341 5.06822L4.91406 4.58332H5.81479L5.08544 5.06822L5.36442 4.28436Z" fill="white"/>
<path d="M5.36442 5.80103L5.64341 6.58488L4.91406 6.09998H5.81479L5.08544 6.58488L5.36442 5.80103Z" fill="white"/>
<path d="M5.36442 7.31769L5.64341 8.10154L4.91406 7.61665H5.81479L5.08544 8.10154L5.36442 7.31769Z" fill="white"/>
<path d="M5.36442 8.83435L5.64341 9.6182L4.91406 9.13331H5.81479L5.08544 9.6182L5.36442 8.83435Z" fill="white"/>
<path d="M5.36442 10.351L5.64341 11.1349L4.91406 10.65H5.81479L5.08544 11.1349L5.36442 10.351Z" fill="white"/>
<path d="M6.33708 5.04272L6.61607 5.82658L5.88672 5.34168H6.78744L6.06208 5.82658L6.33708 5.04272Z" fill="white"/>
<path d="M6.33708 6.55939L6.61607 7.34324L5.88672 6.85835H6.78744L6.06208 7.34324L6.33708 6.55939Z" fill="white"/>
<path d="M6.33708 8.07605L6.61607 8.8599L5.88672 8.37501H6.78744L6.06208 8.8599L6.33708 8.07605Z" fill="white"/>
<path d="M6.33708 9.59271L6.61607 10.3766L5.88672 9.89167H6.78744L6.06208 10.3766L6.33708 9.59271Z" fill="white"/>
<path d="M7.31364 4.28436L7.59263 5.06822L6.86328 4.58332H7.76401L7.03466 5.06822L7.31364 4.28436Z" fill="white"/>
<path d="M7.31364 5.80103L7.59263 6.58488L6.86328 6.09998H7.76401L7.03466 6.58488L7.31364 5.80103Z" fill="white"/>
<path d="M7.31364 7.31769L7.59263 8.10154L6.86328 7.61665H7.76401L7.03466 8.10154L7.31364 7.31769Z" fill="white"/>
<path d="M7.31364 8.83435L7.59263 9.6182L6.86328 9.13331H7.76401L7.03466 9.6182L7.31364 8.83435Z" fill="white"/>
<path d="M7.31364 10.351L7.59263 11.1349L6.86328 10.65H7.76401L7.03466 11.1349L7.31364 10.351Z" fill="white"/>
</g>
<defs>
<clipPath id="clip0_76_2189">
<rect width="22" height="22" fill="white"/>
</clipPath>
</defs>
</svg>
